<svg viewBox="0 0 100 100" xmlns="http://www.w3.org/2000/svg">
    <defs>
        <linearGradient id="sw-gradient" x1="0" x2="1" y1="1" y2="0">
            <stop id="stop1" stop-color="rgba(255, 81.917, 0, 1)" offset="0%" />
            <stop id="stop2" stop-color="rgba(255, 158.795, 0, 1)" offset="100%"/>
        </linearGradient>
    </defs>                
    <path fill="url(#sw-gradient)" d="M28.3,-32.5C35.1,-27.9,38.2,-17.6,38,-8.2C37.8,1.1,34.4,9.5,29.8,16.8C25.1,24.2,19.2,30.4,11.5,34.5C3.7,38.6,-5.9,40.5,-14,37.9C-22.2,35.2,-29,27.9,-33.6,19.6C-38.2,11.3,-40.6,1.8,-39.8,-7.8C-39,-17.4,-35.1,-27.2,-27.9,-31.8C-20.7,-36.3,-10.4,-35.6,0.2,-35.8C10.7,-36,21.4,-37.1,28.3,-32.5Z" width="100%" height="100%" transform="translate(50 50)" style="transition: 0.3s;" stroke-width="0" stroke="url(#sw-gradient)"/>              
</svg>