<svg width="25" height="25" fill="currentColor" xmlns="http://www.w3.org/2000/svg" viewBox="0 0 225.2 225.2">
	<path d="M51.7,169.8C70.4,185,91,189.1,113.2,181c16.1-6,27.2-17.7,30.2-35.5c1.8-10.5-1.7-19.8-8.1-27.9
			c-8-10.2-16.4-20.1-24.6-30.2c-5.4-6.7-4.9-13.7,1.4-18.8c6-4.9,12.8-3.9,18.2,2.6c9.8,12,19.7,23.9,29.5,35.9
			c8.2,10.1,14.5,21.1,16.3,34.2c2.9,20.7-5.3,37-20.8,50.1c-29.8,25.3-78.7,18.2-99.6-14.4C54.1,174.8,53,172.2,51.7,169.8z"/>
	<path d="M172.9,51.7c-17.4-14.8-37.4-18.6-58.7-11.3c-17,5.9-28.6,18-31.5,36.6c-1.6,10.5,2,19.7,8.5,27.8
			c8,10,16.3,19.8,24.4,29.7c3.4,4.1,4.3,8.6,1.6,13.4c-2.8,5-7,7.8-13,7.6c-3.4-0.2-5.9-1.9-8-4.4c-10.9-13.2-22.2-26.2-32.6-39.8
			C51.6,95.3,45.1,77.5,52,57.5c7.9-22.9,24.9-35.8,48.1-41c27.2-6,56.7,6.1,70.8,28.9C172,47.2,173.9,49,172.9,51.7z"/>
</svg>
